<svg width="344" height="344" viewBox="0 0 344 344" fill="none" xmlns="http://www.w3.org/2000/svg">
<path fill-rule="evenodd" clip-rule="evenodd" d="M258 114.646C242.192 114.646 229.333 101.788 229.333 85.9794C229.333 70.1711 242.192 57.3126 258 57.3126C273.808 57.3126 286.667 70.1711 286.667 85.9794C286.667 101.788 273.808 114.646 258 114.646ZM344 86.0001C344 133.422 305.614 171.894 258.197 172C305.593 172.106 344 210.579 344 258C344 305.487 305.508 344 258 344C210.578 344 172.106 305.593 172 258.197C171.894 305.593 133.442 344 86.0001 344C38.5131 344 0 305.487 0 258C0 210.579 38.4067 172.106 85.8033 172C38.4067 171.894 0 133.422 0 86.0001C0 38.5131 38.5131 0 86.0001 0C133.422 0 171.894 38.4067 172 85.8033C172.106 38.4067 210.578 0 258 0C305.487 0 344 38.5131 344 86.0001ZM172 86.1969C172.106 133.528 210.472 171.894 257.803 172C210.472 172.106 172.106 210.472 172 257.803C171.894 210.472 133.528 172.106 86.1969 172C133.549 171.894 171.894 133.528 172 86.1969ZM57.3334 258C57.3334 273.808 70.1919 286.667 86.0001 286.667C101.808 286.667 114.667 273.808 114.667 258C114.667 242.192 101.808 229.333 86.0001 229.333C70.1919 229.333 57.3334 242.192 57.3334 258ZM229.333 258C229.333 273.808 242.192 286.667 258 286.667C273.808 286.667 286.667 273.808 286.667 258C286.667 242.192 273.808 229.333 258 229.333C242.192 229.333 229.333 242.192 229.333 258ZM57.3334 85.9794C57.3334 101.788 70.1919 114.646 86.0001 114.646C101.808 114.646 114.667 101.788 114.667 85.9794C114.667 70.1711 101.808 57.3126 86.0001 57.3126C70.1919 57.3126 57.3334 70.1711 57.3334 85.9794Z" fill="white"></path>
</svg>