<svg width="413" height="195" viewBox="0 0 413 195" fill="none" xmlns="http://www.w3.org/2000/svg">
<path d="M327.18 195C324.385 195 320.542 194.649 315.651 193.946V173.919C319.005 174.481 321.939 174.762 324.455 174.762C330.604 174.762 335.425 173.427 338.919 170.757C342.552 168.227 345.347 164.011 347.304 158.108L349.4 151.784L308.523 47.4324H336.194L359.043 116.368C360.58 120.724 361.558 124.87 361.978 128.805H362.397C362.816 126.978 363.864 122.832 365.541 116.368L386.504 47.4324H412.497L373.297 158.53C368.686 171.741 362.676 181.086 355.27 186.568C348.003 192.189 338.64 195 327.18 195Z" fill="black"></path>
<path d="M297.399 152.838H272.244V0H297.399V152.838Z" fill="black"></path>
<path d="M253.526 152.838H228.371V0H253.526V152.838Z" fill="black"></path>
<path d="M154.391 155.368C143.63 155.368 134.966 152.557 128.397 146.935C121.829 141.173 118.545 133.584 118.545 124.168C118.545 119.108 119.593 114.541 121.689 110.465C123.925 106.389 127.14 103.016 131.332 100.346C135.105 98.0973 139.647 96.2702 144.958 94.8648C150.268 93.3189 157.116 91.9837 165.501 90.8594L187.721 88.1189V85.3783C187.721 77.5081 186.114 71.8162 182.9 68.3027C179.825 64.6486 174.934 62.8216 168.226 62.8216C162.077 62.8216 157.186 64.4378 153.552 67.6702C150.058 70.7621 148.102 75.3297 147.683 81.3729H121.899C122.737 70.1297 127.279 61.2756 135.524 54.8108C143.77 48.2054 154.67 44.9027 168.226 44.9027C183.738 44.9027 195.058 48.4162 202.185 55.4432C209.452 62.3297 213.086 73.4324 213.086 88.7513V120.162C213.086 134.497 214.134 145.389 216.23 152.838H191.075C190.097 147.076 189.538 141.032 189.398 134.708C186.882 141.173 182.48 146.232 176.192 149.886C170.043 153.541 162.776 155.368 154.391 155.368ZM144.538 122.903C144.538 127.4 146.076 130.984 149.15 133.654C152.364 136.184 156.766 137.449 162.356 137.449C170.182 137.449 176.471 134.919 181.223 129.859C185.974 124.659 188.35 117.913 188.35 109.622V102.876L164.662 106.459C157.675 107.584 152.574 109.481 149.36 112.151C146.145 114.822 144.538 118.405 144.538 122.903Z" fill="black"></path>
<path d="M0 3.16212H59.9526C77.9803 3.16212 91.0469 7.30807 99.1524 15.6C107.398 23.7513 111.52 34.5729 111.52 48.0648C111.52 57.6216 108.935 66.1243 103.764 73.5729C98.5934 81.0216 90.7674 86.2216 80.2862 89.1729L115.713 152.838H85.946L53.2446 92.7567H27.0416V152.838H0V3.16212ZM55.3409 72.5189C64.9836 72.5189 72.0409 70.3405 76.5129 65.9837C80.9849 61.627 83.2209 55.654 83.2209 48.0648C83.2209 31.9027 73.9276 23.8216 55.3409 23.8216H27.0416V72.5189H55.3409Z" fill="black"></path>
</svg>